<?xml version="1.0" encoding="UTF-8" ?>
<!DOCTYPE svg PUBLIC "-//W3C//DTD SVG 1.1//EN" "http://www.w3.org/Graphics/SVG/1.1/DTD/svg11.dtd">
<svg width="1024pt" height="1024pt" viewBox="0 0 1024 1024" version="1.1" xmlns="http://www.w3.org/2000/svg">
<g id="#0e0d0eff">
<path fill="#0e0d0e" opacity="1.00" d=" M 451.35 192.36 C 471.40 172.09 490.93 151.26 512.00 132.03 C 529.47 151.50 549.05 168.93 567.11 187.83 C 604.24 225.17 640.07 263.89 672.90 305.09 C 684.90 319.33 695.49 334.66 705.96 350.04 C 733.69 390.95 755.72 437.26 760.97 486.90 C 766.77 545.79 747.52 605.96 711.43 652.50 C 679.98 693.85 634.96 724.56 585.17 739.27 C 564.77 745.20 543.62 748.00 522.48 749.55 C 522.30 715.03 522.49 680.52 522.38 646.00 C 522.39 639.66 522.24 633.28 523.14 626.99 C 525.80 595.18 545.02 567.03 568.79 546.77 C 593.95 527.12 627.00 516.25 658.85 519.67 C 625.28 531.22 593.59 550.43 570.52 577.70 C 561.82 588.61 554.59 601.02 551.02 614.59 C 580.57 608.06 609.63 598.75 639.81 595.46 C 615.89 613.28 591.73 631.49 564.00 643.05 C 560.65 644.79 556.13 645.35 554.44 649.19 C 582.44 649.44 610.99 642.93 634.80 627.77 C 651.89 616.82 665.75 601.15 675.28 583.28 C 687.18 559.82 696.50 534.74 712.75 513.75 C 716.79 507.99 722.18 503.17 725.34 496.82 C 709.64 494.59 693.91 491.98 678.00 492.43 C 644.17 491.57 610.54 499.84 579.97 514.05 C 550.20 528.91 526.62 554.54 511.96 584.18 C 503.89 570.02 495.09 556.08 483.59 544.43 C 466.87 526.70 445.58 513.52 422.67 505.40 C 383.02 490.35 339.19 489.43 297.78 496.74 C 311.04 514.19 323.63 532.25 332.67 552.31 C 342.79 574.60 352.86 597.87 371.25 614.75 C 398.67 639.01 436.02 651.15 472.42 649.18 C 468.78 646.54 464.33 645.58 460.29 643.79 C 433.05 632.11 408.08 615.50 385.73 596.12 C 393.19 596.20 400.54 597.53 407.77 599.26 C 429.67 603.72 451.21 609.74 472.93 614.95 C 463.15 583.16 437.68 559.12 410.42 541.56 C 395.47 532.88 380.02 524.73 363.44 519.63 C 398.65 515.68 435.21 528.62 460.74 553.09 C 485.71 575.86 501.74 608.93 501.32 643.00 C 500.92 678.49 501.91 714.04 500.79 749.50 C 448.56 746.81 396.19 729.95 355.13 696.89 C 301.32 654.02 264.81 588.22 261.80 519.01 C 259.40 472.42 273.02 426.09 295.61 385.64 C 307.57 363.02 321.79 341.63 337.33 321.33 C 371.68 275.25 410.83 233.03 451.35 192.36 M 510.55 363.31 C 495.43 382.55 481.40 402.87 471.16 425.18 C 465.08 439.10 459.94 454.33 462.16 469.71 C 463.77 485.23 472.93 499.49 485.60 508.39 C 500.21 518.34 520.42 518.18 535.59 509.55 C 551.60 499.96 561.61 481.60 561.54 462.99 C 562.14 450.33 558.19 438.02 553.16 426.57 C 543.00 403.51 527.69 383.26 512.57 363.29 C 512.06 363.30 511.06 363.30 510.55 363.31 Z" />
</g>
</svg>
