<?xml version="1.0" encoding="UTF-8" ?>
<!DOCTYPE svg PUBLIC "-//W3C//DTD SVG 1.1//EN" "http://www.w3.org/Graphics/SVG/1.1/DTD/svg11.dtd">
<svg width="1024pt" height="1024pt" viewBox="0 0 1024 1024" version="1.1" xmlns="http://www.w3.org/2000/svg">
<g id="#0e0d0eff">
<path fill="#0e0d0e" opacity="1.00" d=" M 451.35 192.36 C 471.40 172.09 490.93 151.26 512.00 132.03 C 529.47 151.50 549.05 168.93 567.11 187.83 C 604.24 225.17 640.07 263.89 672.90 305.09 C 684.90 319.33 695.49 334.66 705.96 350.04 C 733.69 390.95 755.72 437.26 760.97 486.90 C 766.77 545.79 747.52 605.96 711.43 652.50 C 679.98 693.85 634.96 724.56 585.17 739.27 C 564.77 745.20 543.62 748.00 522.48 749.55 C 522.30 715.03 522.49 680.52 522.38 646.00 C 522.39 639.66 522.24 633.28 523.14 626.99 C 525.80 595.18 545.02 567.03 568.79 546.77 C 593.95 527.12 627.00 516.25 658.85 519.67 C 625.28 531.22 593.59 550.43 570.52 577.70 C 561.82 588.61 554.59 601.02 551.02 614.59 C 580.57 608.06 609.63 598.75 639.81 595.46 C 615.89 613.28 591.73 631.49 564.00 643.05 C 560.65 644.79 556.13 645.35 554.44 649.19 C 582.44 649.44 610.99 642.93 634.80 627.77 C 651.89 616.82 665.75 601.15 675.28 583.28 C 687.18 559.82 696.50 534.74 712.75 513.75 C 716.79 507.99 722.18 503.17 725.34 496.82 C 709.64 494.59 693.91 491.98 678.00 492.43 C 644.17 491.57 610.54 499.84 579.97 514.05 C 550.20 528.91 526.62 554.54 511.96 584.18 C 503.89 570.02 495.09 556.08 483.59 544.43 C 466.87 526.70 445.58 513.52 422.67 505.40 C 383.02 490.35 339.19 489.43 297.78 496.74 C 311.04 514.19 323.63 532.25 332.67 552.31 C 342.79 574.60 352.86 597.87 371.25 614.75 C 398.67 639.01 436.02 651.15 472.42 649.18 C 468.78 646.54 464.33 645.58 460.29 643.79 C 433.05 632.11 408.08 615.50 385.73 596.12 C 393.19 596.20 400.54 597.53 407.77 599.26 C 429.67 603.72 451.21 609.74 472.93 614.95 C 463.15 583.16 437.68 559.12 410.42 541.56 C 395.47 532.88 380.02 524.73 363.44 519.63 C 398.65 515.68 435.21 528.62 460.74 553.09 C 485.71 575.86 501.74 608.93 501.32 643.00 C 500.92 678.49 501.91 714.04 500.79 749.50 C 448.56 746.81 396.19 729.95 355.13 696.89 C 301.32 654.02 264.81 588.22 261.80 519.01 C 259.40 472.42 273.02 426.09 295.61 385.64 C 307.57 363.02 321.79 341.63 337.33 321.33 C 371.68 275.25 410.83 233.03 451.35 192.36 M 510.55 363.31 C 495.43 382.55 481.40 402.87 471.16 425.18 C 465.08 439.10 459.94 454.33 462.16 469.71 C 463.77 485.23 472.93 499.49 485.60 508.39 C 500.21 518.34 520.42 518.18 535.59 509.55 C 551.60 499.96 561.61 481.60 561.54 462.99 C 562.14 450.33 558.19 438.02 553.16 426.57 C 543.00 403.51 527.69 383.26 512.57 363.29 C 512.06 363.30 511.06 363.30 510.55 363.31 Z" />
<path fill="#0e0d0e" opacity="1.00" d=" M 69.46 736.82 C 125.89 735.66 182.52 737.09 239.00 735.75 C 245.29 736.10 251.89 734.74 257.94 736.95 C 263.16 738.88 265.63 746.32 261.55 750.50 C 258.80 753.96 254.12 754.40 250.01 754.37 C 193.01 754.49 136.01 754.22 79.01 754.37 C 74.34 754.21 68.64 754.67 65.44 750.53 C 61.30 746.28 63.58 738.06 69.46 736.82 Z" />
<path fill="#0e0d0e" opacity="1.00" d=" M 766.44 736.70 C 822.89 735.47 879.49 737.06 935.99 736.08 C 943.76 736.18 954.03 733.25 959.49 740.53 C 963.87 746.26 957.71 754.58 951.06 753.76 C 893.06 754.93 835.02 753.98 777.00 754.40 C 772.02 754.22 765.88 754.95 762.31 750.69 C 758.04 746.35 760.56 738.14 766.44 736.70 Z" />
<path fill="#0e0d0e" opacity="1.00" d=" M 316.35 782.40 C 333.52 780.34 351.56 784.99 364.97 796.02 C 368.00 799.27 363.38 802.96 361.76 805.80 C 358.07 809.84 356.18 816.19 350.97 818.40 C 339.97 812.68 327.64 806.52 314.87 809.84 C 311.01 810.34 309.13 816.10 313.15 817.82 C 326.89 825.21 344.31 823.01 357.01 832.97 C 370.83 842.36 373.32 862.56 365.48 876.56 C 360.90 884.61 352.26 889.50 343.40 891.35 C 321.92 895.95 298.00 891.25 281.13 876.82 C 278.58 874.65 281.18 871.58 282.53 869.55 C 286.01 864.96 288.92 859.92 292.67 855.54 C 294.64 853.21 297.58 855.26 299.60 856.40 C 309.45 862.36 320.90 867.38 332.67 865.59 C 336.22 865.13 340.56 863.10 340.62 858.98 C 340.86 855.24 336.55 854.04 333.68 853.32 C 320.10 850.53 305.43 849.52 293.75 841.27 C 277.71 830.18 277.66 803.60 292.45 791.45 C 299.09 785.77 307.82 783.32 316.35 782.40 Z" />
<path fill="#0e0d0e" opacity="1.00" d=" M 574.36 782.40 C 591.52 780.34 609.56 785.00 622.97 796.02 C 626.00 799.27 621.39 802.96 619.76 805.79 C 616.07 809.83 614.18 816.20 608.97 818.40 C 597.96 812.68 585.64 806.52 572.87 809.84 C 569.41 810.29 567.11 815.42 570.58 817.42 C 579.63 823.18 590.86 822.87 600.81 826.20 C 612.34 829.28 623.41 837.40 626.64 849.35 C 629.10 859.68 627.92 871.58 621.07 880.07 C 615.86 886.57 607.87 890.18 599.82 891.69 C 578.77 895.69 555.58 890.91 539.13 876.82 C 536.58 874.65 539.17 871.58 540.52 869.55 C 544.01 864.96 546.92 859.92 550.67 855.54 C 552.65 853.21 555.59 855.26 557.60 856.40 C 567.45 862.36 578.91 867.38 590.68 865.59 C 594.23 865.13 598.56 863.10 598.62 858.98 C 598.86 855.24 594.55 854.04 591.68 853.32 C 578.10 850.53 563.43 849.52 551.75 841.27 C 535.70 830.18 535.65 803.60 550.45 791.45 C 557.09 785.77 565.82 783.32 574.36 782.40 Z" />
<path fill="#0e0d0e" opacity="1.00" d=" M 69.41 783.48 C 79.18 782.32 89.16 783.35 99.01 783.01 C 109.72 783.43 120.98 781.48 131.15 785.80 C 146.64 791.81 157.24 808.40 156.09 824.99 C 155.84 837.02 150.03 849.27 139.41 855.45 C 129.22 862.00 116.72 862.41 105.00 861.97 C 102.49 862.23 98.48 861.19 97.37 864.26 C 96.27 872.39 97.75 880.68 96.75 888.83 C 96.00 891.26 93.05 890.97 91.03 891.07 C 84.33 890.93 77.62 891.28 70.93 890.89 C 67.84 890.92 67.70 887.27 67.73 885.02 C 67.77 853.01 67.77 820.99 67.73 788.98 C 67.90 787.11 67.56 784.62 69.41 783.48 M 99.26 810.36 C 95.55 812.33 97.49 817.58 96.98 821.00 C 97.58 825.32 95.54 830.81 98.60 834.35 C 105.43 835.62 112.73 835.19 119.66 834.53 C 130.22 831.12 128.96 813.34 118.38 810.63 C 112.10 809.58 105.57 809.77 99.26 810.36 Z" />
<path fill="#0e0d0e" opacity="1.00" d=" M 177.40 783.46 C 201.51 782.35 225.82 783.39 250.01 782.95 C 252.66 783.05 257.34 782.30 257.54 786.15 C 257.88 792.75 257.72 799.39 257.63 806.00 C 257.81 808.09 256.28 810.16 254.04 809.94 C 238.44 810.42 222.77 809.52 207.20 810.32 C 203.37 813.12 203.05 824.77 209.92 824.00 C 222.30 824.09 234.69 823.93 247.08 824.01 C 249.07 823.84 251.75 824.64 251.66 827.10 C 251.95 834.01 251.95 840.98 251.67 847.90 C 251.75 849.84 249.83 851.04 248.05 850.94 C 234.45 851.42 220.78 850.51 207.20 851.32 C 203.66 853.53 203.65 861.50 207.22 863.68 C 222.78 864.55 238.45 863.63 254.05 864.08 C 256.29 863.82 257.81 865.91 257.63 868.00 C 257.72 874.60 257.87 881.24 257.55 887.84 C 257.57 890.76 254.29 891.17 252.06 891.05 C 228.00 890.98 203.94 891.12 179.89 890.98 C 176.93 891.45 175.44 888.62 175.76 886.05 C 175.71 853.70 175.79 821.34 175.72 788.98 C 175.90 787.10 175.54 784.61 177.40 783.46 Z" />
<path fill="#0e0d0e" opacity="1.00" d=" M 381.31 783.36 C 406.48 782.48 431.79 783.33 457.01 782.95 C 459.26 783.17 462.88 782.30 463.75 785.15 C 464.43 791.41 463.88 797.74 464.07 804.03 C 463.94 806.00 464.35 809.10 461.85 809.75 C 454.30 810.68 446.65 809.41 439.10 810.25 C 436.38 810.61 436.42 813.83 436.41 815.93 C 436.46 839.30 436.43 862.67 436.44 886.03 C 436.66 888.21 435.73 891.16 433.02 890.92 C 425.38 891.09 417.70 891.26 410.07 890.83 C 407.18 890.59 407.23 887.20 407.22 885.06 C 407.29 862.03 407.21 839.00 407.28 815.98 C 407.13 814.00 407.47 810.74 404.90 810.27 C 397.32 809.43 389.66 810.61 382.09 809.82 C 380.14 809.72 379.34 807.66 379.42 805.99 C 379.24 800.31 379.41 794.63 379.34 788.95 C 379.48 787.02 379.07 784.24 381.31 783.36 Z" />
<path fill="#0e0d0e" opacity="1.00" d=" M 773.40 783.47 C 797.51 782.34 821.82 783.40 846.00 782.95 C 848.66 783.05 853.35 782.29 853.55 786.15 C 853.82 793.03 853.82 799.96 853.55 806.84 C 853.59 809.23 851.10 810.18 849.08 810.01 C 835.04 810.10 820.99 810.02 806.95 809.99 C 798.32 807.97 798.32 826.02 806.94 824.03 C 818.99 824.05 831.03 823.95 843.08 824.01 C 845.06 823.85 847.77 824.62 847.67 827.09 C 847.94 834.01 847.94 840.98 847.67 847.91 C 847.77 850.37 845.05 851.13 843.07 851.01 C 830.69 851.14 818.30 850.95 805.92 851.03 C 803.92 850.90 801.25 851.60 801.21 854.05 C 800.59 865.35 801.44 876.71 800.89 888.02 C 800.86 890.51 798.07 891.19 796.06 891.04 C 789.02 890.98 781.96 891.26 774.93 890.89 C 771.82 890.94 771.70 887.27 771.73 885.02 C 771.77 853.01 771.77 820.99 771.73 788.98 C 771.89 787.11 771.54 784.61 773.40 783.47 Z" />
<path fill="#0e0d0e" opacity="1.00" d=" M 877.40 783.46 C 901.51 782.35 925.81 783.39 950.00 782.95 C 952.66 783.05 957.35 782.30 957.54 786.16 C 957.87 792.76 957.72 799.39 957.63 806.01 C 957.80 808.09 956.27 810.16 954.04 809.94 C 938.44 810.42 922.77 809.52 907.20 810.32 C 903.37 813.13 903.05 824.78 909.92 824.00 C 922.30 824.09 934.69 823.93 947.08 824.01 C 949.06 823.84 951.74 824.64 951.66 827.09 C 951.95 834.01 951.95 840.98 951.67 847.90 C 951.74 849.84 949.82 851.04 948.06 850.94 C 934.45 851.42 920.78 850.51 907.21 851.32 C 903.66 853.52 903.64 861.51 907.23 863.68 C 922.79 864.55 938.46 863.63 954.05 864.08 C 956.29 863.82 957.80 865.91 957.63 868.00 C 957.72 874.61 957.87 881.24 957.54 887.85 C 957.56 890.76 954.28 891.17 952.06 891.05 C 928.00 890.98 903.94 891.12 879.89 890.98 C 876.93 891.45 875.43 888.62 875.76 886.05 C 875.71 853.70 875.79 821.34 875.72 788.98 C 875.89 787.10 875.53 784.60 877.40 783.46 Z" />
<path fill="#0e0d0e" opacity="1.00" d=" M 487.19 784.31 C 495.10 783.65 503.11 784.01 511.06 784.11 C 513.70 783.93 514.58 786.81 514.38 788.96 C 514.37 821.32 514.37 853.68 514.38 886.03 C 514.59 888.18 513.69 891.06 511.04 890.90 C 503.37 891.13 495.66 891.21 488.00 890.85 C 485.47 890.86 484.97 888.05 485.04 886.08 C 485.01 854.04 485.09 822.00 485.01 789.96 C 485.17 788.01 484.76 784.98 487.19 784.31 Z" />
<path fill="#0e0d0e" opacity="1.00" d=" M 682.42 784.48 C 689.87 783.42 697.54 784.15 705.08 784.06 C 708.10 783.83 709.98 786.50 710.96 788.99 C 724.75 821.16 738.69 853.27 752.50 885.43 C 753.63 887.27 753.55 890.51 750.88 890.81 C 743.61 891.41 736.29 890.83 729.00 891.08 C 725.58 891.10 721.03 891.43 719.37 887.67 C 716.71 883.64 716.11 876.28 710.07 876.08 C 700.02 875.96 689.96 876.01 679.91 876.06 C 671.04 876.15 673.76 890.62 665.09 890.98 C 656.44 890.99 647.75 891.33 639.13 890.80 C 636.20 890.65 636.34 887.35 637.42 885.41 C 651.20 853.24 665.14 821.12 678.87 788.93 C 679.70 787.23 680.54 785.24 682.42 784.48 M 694.61 828.12 C 691.17 835.35 688.04 842.75 685.50 850.35 C 691.70 851.34 698.09 851.43 704.28 850.27 C 701.31 842.79 698.91 834.97 694.61 828.12 Z" />
</g>
</svg>
